<svg xmlns="http://www.w3.org/2000/svg" width="256" height="256" viewBox="0 0 256 256">
  <defs>
    <linearGradient id="bg" x1="0" y1="0" x2="1" y2="1">
      <stop offset="0%" stop-color="#3b9df5"/>
      <stop offset="100%" stop-color="#1a6fcc"/>
    </linearGradient>
  </defs>

  <!-- Rounded square background -->
  <rect x="8" y="8" width="240" height="240" rx="48" ry="48" fill="url(#bg)"/>

  <!-- Microphone body -->
  <rect x="104" y="52" width="48" height="80" rx="24" ry="24" fill="#ffffff"/>

  <!-- Microphone arc (listening) -->
  <path d="M80 120 c0 26.5 21.5 48 48 48 s48-21.5 48-48"
        fill="none" stroke="#ffffff" stroke-width="10" stroke-linecap="round"/>

  <!-- Microphone stand -->
  <line x1="128" y1="168" x2="128" y2="192" stroke="#ffffff" stroke-width="10" stroke-linecap="round"/>
  <line x1="104" y1="192" x2="152" y2="192" stroke="#ffffff" stroke-width="10" stroke-linecap="round"/>

  <!-- AI sparkle (top-right) -->
  <g fill="#ffffff" opacity="0.9">
    <!-- 4-point star -->
    <path d="M192 48 L196 60 L208 64 L196 68 L192 80 L188 68 L176 64 L188 60 Z"/>
    <!-- Small dot accent -->
    <circle cx="212" cy="44" r="4"/>
    <circle cx="172" cy="40" r="3"/>
  </g>
</svg>
