<svg xmlns="http://www.w3.org/2000/svg" width="64" height="64" viewBox="0 0 24 24">
  <!-- Processing state: amber #FFB703 (from Stitch design) -->
  <path d="M12 14c1.66 0 3-1.34 3-3V5c0-1.66-1.34-3-3-3S9 3.34 9 5v6c0 1.66 1.34 3 3 3z" fill="#FFB703"/>
  <path d="M17 11c0 2.76-2.24 5-5 5s-5-2.24-5-5H5c0 3.53 2.61 6.43 6 6.92V21h2v-3.08c3.39-.49 6-3.39 6-6.92h-2z" fill="#FFB703"/>
  <!-- Processing dots (from Stitch design) -->
  <circle cx="19" cy="19" r="1" fill="#FFB703" opacity="0.6"/>
  <circle cx="21.5" cy="19" r="1" fill="#FFB703" opacity="0.8"/>
  <circle cx="24" cy="19" r="1" fill="#FFB703"/>
</svg>
