<svg xmlns="http://www.w3.org/2000/svg" width="64" height="64" viewBox="0 0 24 24">
  <!-- Recording state: coral red #FF5A5F (from Stitch design) -->
  <!-- Outer pulse ring -->
  <circle cx="12" cy="11" r="11" fill="none" stroke="#FF5A5F" stroke-width="0.8" opacity="0.3"/>
  <!-- Inner pulse ring -->
  <circle cx="12" cy="11" r="8.5" fill="none" stroke="#FF5A5F" stroke-width="0.8" opacity="0.6"/>
  <path d="M12 14c1.66 0 3-1.34 3-3V5c0-1.66-1.34-3-3-3S9 3.34 9 5v6c0 1.66 1.34 3 3 3z" fill="#FF5A5F"/>
  <path d="M17 11c0 2.76-2.24 5-5 5s-5-2.24-5-5H5c0 3.53 2.61 6.43 6 6.92V21h2v-3.08c3.39-.49 6-3.39 6-6.92h-2z" fill="#FF5A5F"/>
</svg>
